<svg id="svg" version="1.1" width="400" height="400" viewBox="0 0 400 400" 
    xmlns="http://www.w3.org/2000/svg" 
    xmlns:xlink="http://www.w3.org/1999/xlink">
    <g id="svgg">
        <path id="path0" d="M139.229 3.872 C 115.007 10.408,110.120 41.710,131.556 53.015 C 135.571 55.133,139.652 56.442,144.149 57.056 C 146.185 57.334,147.906 57.599,147.973 57.645 C 148.107 57.738,148.310 64.610,148.633 79.980 L 148.848 90.234 119.541 90.234 L 90.234 90.234 90.183 112.402 C 90.154 124.595,90.075 136.416,90.007 138.672 C 89.938 140.928,89.874 143.492,89.863 144.370 L 89.844 145.967 74.347 146.224 C 65.824 146.365,58.809 146.438,58.758 146.385 C 58.708 146.332,58.463 144.581,58.215 142.494 C 56.338 126.716,48.737 116.850,36.719 114.594 C 17.914 111.063,1.156 128.085,4.283 147.541 C 6.394 160.678,16.061 168.508,32.154 170.114 C 33.618 170.260,34.885 170.585,34.970 170.835 C 35.199 171.513,35.383 226.952,35.156 226.964 C 12.473 228.212,3.461 235.516,3.357 252.734 C 3.159 285.452,45.131 293.691,55.448 262.960 C 56.305 260.409,57.402 254.887,57.415 253.065 C 57.423 251.796,58.041 251.717,68.750 251.627 C 72.725 251.593,79.185 251.451,83.105 251.311 L 90.234 251.055 90.234 280.192 C 90.234 296.556,90.385 309.422,90.578 309.541 C 90.767 309.658,101.294 309.762,113.971 309.772 C 126.648 309.781,139.035 309.897,141.498 310.029 L 145.977 310.270 146.193 325.740 C 146.312 334.249,146.382 341.238,146.349 341.272 C 146.316 341.306,145.322 341.445,144.141 341.582 C 139.949 342.068,138.840 342.242,136.496 342.776 C 122.490 345.966,114.432 355.047,114.315 367.773 C 114.045 397.063,154.837 407.324,166.849 380.988 C 168.723 376.880,170.904 366.507,170.150 365.288 C 169.989 365.027,226.321 364.374,226.833 364.630 C 226.874 364.651,227.014 365.894,227.145 367.393 C 228.942 388.055,235.775 396.134,251.993 396.771 C 269.558 397.460,282.822 384.535,281.914 367.616 C 281.211 354.524,271.188 345.036,255.851 342.944 C 253.815 342.666,252.095 342.402,252.029 342.357 C 251.894 342.263,251.679 335.009,251.367 320.020 L 251.154 309.766 280.277 309.766 C 303.231 309.766,309.433 309.662,309.556 309.277 C 309.642 309.009,309.783 296.529,309.869 281.544 C 309.954 266.559,310.098 254.234,310.188 254.156 C 310.278 254.078,317.322 253.902,325.840 253.764 L 341.329 253.513 341.588 255.956 C 343.575 274.680,352.188 284.805,366.992 285.818 C 385.812 287.106,400.836 266.826,394.772 248.319 C 391.575 238.564,382.497 231.657,371.094 230.303 C 370.127 230.188,368.457 229.992,367.383 229.868 C 366.309 229.744,365.312 229.521,365.169 229.372 C 364.553 228.734,364.618 173.048,365.234 173.027 C 368.456 172.918,376.729 171.772,379.016 171.118 C 390.878 167.726,396.477 160.377,396.743 147.852 C 397.112 130.418,385.648 118.176,368.945 118.167 C 354.985 118.160,345.088 128.129,342.900 144.401 L 342.419 147.982 340.448 148.147 C 339.364 148.238,335.225 148.339,331.250 148.373 C 327.275 148.407,320.815 148.549,316.895 148.689 L 309.766 148.945 309.766 119.590 L 309.766 90.234 286.816 90.220 C 267.777 90.207,254.272 89.996,254.058 89.707 C 254.034 89.675,253.908 82.671,253.779 74.143 L 253.543 58.637 255.385 58.417 C 265.128 57.251,269.840 55.825,274.800 52.539 C 291.168 41.697,289.084 17.093,270.981 7.432 C 257.157 0.056,240.812 4.479,233.903 17.466 C 231.762 21.492,229.243 31.859,229.777 34.449 C 229.860 34.850,174.008 35.769,173.175 35.379 C 173.139 35.362,172.913 33.252,172.675 30.689 C 171.237 15.233,165.871 7.051,155.207 4.054 C 151.586 3.036,142.700 2.935,139.229 3.872 M149.688 11.373 C 158.233 13.173,163.990 20.900,164.715 31.543 L 164.962 35.156 161.997 35.156 L 159.032 35.156 158.807 33.301 C 157.491 22.485,153.906 17.488,146.826 16.603 C 131.167 14.646,126.350 38.720,141.797 41.735 C 144.666 42.295,156.223 42.525,196.191 42.818 L 229.688 43.064 229.688 45.555 L 229.688 48.047 187.367 48.047 C 140.158 48.047,142.378 48.166,136.585 45.313 C 117.304 35.817,128.466 6.904,149.688 11.373 M263.823 12.952 C 268.114 14.378,271.623 17.158,274.270 21.232 C 282.312 33.610,274.655 46.484,257.388 49.616 C 254.506 50.138,254.756 50.367,254.616 47.073 L 254.500 44.363 255.863 44.093 C 256.613 43.944,258.333 43.640,259.686 43.416 C 268.512 41.957,273.356 34.244,270.510 26.179 C 266.831 15.750,251.867 14.304,247.344 23.941 C 245.205 28.498,245.203 28.543,245.428 60.645 L 245.635 90.234 242.739 90.234 L 239.844 90.234 239.821 82.324 C 239.809 77.974,239.731 73.768,239.647 72.979 C 239.048 67.302,239.301 27.762,239.953 25.221 C 242.758 14.280,252.596 9.224,263.823 12.952 M148.163 26.540 C 150.134 28.882,150.439 33.359,148.710 34.570 C 146.223 36.312,141.412 33.276,141.408 29.961 C 141.403 26.113,145.891 23.840,148.163 26.540 M260.289 26.974 C 263.275 29.322,262.067 34.575,258.242 35.876 C 255.183 36.917,253.509 35.708,253.524 32.467 C 253.547 27.649,257.287 24.613,260.289 26.974 M161.394 58.887 C 161.811 65.647,161.745 135.700,161.319 139.648 C 159.829 153.445,154.732 157.754,137.305 159.946 C 133.431 160.433,116.297 160.612,116.023 160.168 C 115.781 159.777,115.913 155.094,116.174 154.799 C 116.268 154.693,122.648 154.375,130.273 154.096 C 149.018 153.410,153.690 150.925,156.135 140.341 C 156.789 137.510,156.830 134.580,156.742 96.973 L 156.648 56.641 158.952 56.641 L 161.256 56.641 161.394 58.887 M229.831 62.983 C 229.957 66.477,230.137 74.038,230.233 79.785 L 230.406 90.234 200.813 90.234 L 171.219 90.234 170.962 79.980 C 170.820 74.341,170.704 66.873,170.704 63.385 L 170.703 57.043 182.129 56.939 C 188.413 56.883,201.666 56.790,211.579 56.733 L 229.604 56.630 229.831 62.983 M148.828 102.926 L 148.828 106.243 127.673 106.344 L 106.517 106.445 106.607 167.676 L 106.697 228.906 103.092 228.906 L 99.488 228.906 99.735 164.355 C 99.870 128.853,99.986 99.761,99.991 99.707 C 99.996 99.653,110.986 99.609,124.414 99.609 L 148.828 99.609 148.828 102.926 M294.629 99.922 L 300.391 100.040 300.391 124.434 L 300.391 148.828 297.070 148.828 L 293.750 148.828 293.750 127.637 L 293.750 106.445 232.422 106.548 L 171.094 106.650 171.094 103.097 L 171.094 99.544 229.980 99.674 C 262.368 99.746,291.460 99.858,294.629 99.922 M230.709 116.166 C 230.734 116.191,230.867 120.957,231.005 126.758 C 231.418 144.133,232.577 151.046,236.216 157.846 C 240.853 166.510,251.788 170.701,269.762 170.703 C 271.931 170.703,276.066 170.816,278.952 170.955 L 284.199 171.206 284.059 200.935 C 283.982 217.286,283.890 230.684,283.854 230.708 C 283.818 230.733,278.919 230.868,272.966 231.009 C 236.164 231.879,230.063 237.996,229.106 274.986 C 228.976 280.027,228.810 284.211,228.738 284.283 C 228.666 284.355,215.227 284.289,198.874 284.137 L 169.141 283.860 169.135 277.770 C 169.097 235.279,162.707 229.249,117.366 228.918 L 115.787 228.906 115.935 199.121 C 116.016 182.739,116.112 169.316,116.147 169.292 C 116.182 169.268,120.957 169.134,126.758 168.995 C 150.166 168.435,160.897 165.054,165.347 156.836 C 169.557 149.062,170.961 139.377,171.084 117.264 L 171.094 115.583 200.879 115.852 C 217.261 116.000,230.684 116.141,230.709 116.166 M245.255 116.228 C 245.331 116.299,245.546 120.849,245.732 126.340 C 246.329 143.924,247.309 148.292,251.571 152.372 C 256.434 157.028,258.321 157.185,305.371 156.842 L 343.359 156.565 343.359 158.885 L 343.359 161.205 336.786 161.453 C 325.572 161.877,264.473 161.766,260.276 161.315 C 244.115 159.578,240.283 152.896,239.656 125.357 L 239.437 115.754 242.277 115.927 C 243.839 116.022,245.179 116.158,245.255 116.228 M283.565 116.261 C 283.656 116.345,283.811 123.714,283.909 132.637 L 284.086 148.861 277.492 148.791 C 255.538 148.559,254.602 147.653,254.080 126.130 L 253.824 115.547 268.611 115.828 C 276.744 115.983,283.473 116.178,283.565 116.261 M148.794 122.942 C 148.543 144.937,147.553 145.794,122.106 146.056 L 115.501 146.124 115.755 138.004 C 115.895 133.537,116.010 126.860,116.012 123.165 L 116.016 116.447 118.066 116.312 C 119.194 116.238,126.587 116.137,134.495 116.089 L 148.873 116.001 148.794 122.942 M35.742 123.302 C 42.145 125.238,48.038 133.141,49.387 141.602 C 49.524 142.461,49.732 143.647,49.849 144.238 L 50.062 145.313 47.101 145.313 C 45.473 145.313,44.141 145.237,44.141 145.145 C 44.141 135.357,38.840 128.883,30.810 128.865 C 17.419 128.836,12.173 146.802,23.873 152.621 C 28.134 154.740,28.175 154.743,60.449 154.538 L 90.234 154.350 90.234 157.207 L 90.234 160.065 74.902 160.350 C 22.093 161.334,18.618 160.884,14.172 152.471 C 6.226 137.434,20.161 118.590,35.742 123.302 M374.414 127.027 C 383.957 129.185,390.572 139.482,388.729 149.312 C 387.060 158.222,377.778 164.844,366.958 164.844 L 364.844 164.844 364.844 161.938 L 364.844 159.032 366.699 158.799 C 380.445 157.071,385.770 150.974,382.545 140.657 C 379.519 130.978,363.904 129.339,359.408 138.229 C 358.038 140.937,357.781 143.700,357.603 157.617 C 357.172 191.260,357.041 204.961,357.036 216.895 L 357.031 229.688 354.492 229.688 L 351.953 229.688 351.916 194.043 C 351.875 154.097,351.918 145.724,352.168 144.441 C 352.263 143.954,352.457 142.941,352.599 142.190 C 354.674 131.222,364.074 124.688,374.414 127.027 M33.451 138.763 C 35.536 140.191,36.804 142.981,36.192 144.792 C 35.252 147.572,28.261 146.636,26.456 143.488 C 24.471 140.028,29.923 136.346,33.451 138.763 M372.032 141.951 C 376.053 143.631,375.336 148.141,370.840 149.448 C 366.024 150.848,363.744 148.750,365.611 144.637 C 366.874 141.854,369.336 140.824,372.032 141.951 M90.234 199.209 L 90.234 228.906 88.965 228.909 C 88.267 228.910,80.796 229.026,72.363 229.167 L 57.031 229.423 57.027 223.793 C 57.024 220.697,56.909 207.397,56.772 194.238 L 56.521 170.313 57.655 170.259 C 58.279 170.229,64.414 170.098,71.289 169.966 C 78.164 169.834,85.239 169.678,87.012 169.619 L 90.234 169.512 90.234 199.209 M48.093 206.348 C 48.119 226.167,48.140 243.525,48.141 244.922 C 48.150 258.483,46.755 263.445,41.451 268.716 C 30.535 279.565,10.937 270.514,10.938 254.625 C 10.938 243.629,18.975 236.152,31.738 235.275 L 35.156 235.041 35.156 238.028 C 35.156 239.671,35.112 241.017,35.059 241.019 C 21.137 241.441,13.914 249.070,17.494 259.570 C 20.456 268.260,34.761 270.555,39.741 263.139 C 42.217 259.451,42.422 256.923,42.580 228.125 C 42.641 217.061,42.743 206.426,42.806 204.492 C 42.870 202.559,42.933 194.077,42.945 185.645 L 42.969 170.313 45.508 170.313 L 48.047 170.313 48.093 206.348 M342.972 176.455 C 342.974 179.629,343.090 192.885,343.230 205.911 L 343.484 229.596 340.394 229.782 C 338.695 229.884,333.174 229.995,328.125 230.028 C 323.076 230.062,316.880 230.198,314.355 230.331 L 309.766 230.573 309.766 200.843 L 309.766 171.114 315.918 171.006 C 319.302 170.947,326.772 170.850,332.520 170.791 L 342.969 170.684 342.972 176.455 M300.266 235.645 C 300.132 271.147,300.017 300.239,300.011 300.293 C 300.005 300.347,289.014 300.391,275.586 300.391 L 251.172 300.391 251.172 297.074 L 251.172 293.757 272.319 293.656 L 293.466 293.555 293.388 232.324 L 293.310 171.094 296.909 171.094 L 300.509 171.094 300.266 235.645 M139.648 238.668 C 155.807 240.399,159.682 247.100,160.340 274.448 L 160.576 284.247 157.729 284.073 C 156.164 283.978,154.851 283.872,154.811 283.838 C 154.682 283.726,154.315 276.476,154.083 269.454 C 153.486 251.373,150.749 246.266,140.372 243.872 C 137.499 243.209,134.754 243.171,96.973 243.277 L 56.641 243.390 56.641 241.043 L 56.641 238.697 61.230 238.577 C 73.418 238.258,136.506 238.332,139.648 238.668 M375.579 240.172 C 392.340 244.786,392.599 267.990,375.977 275.819 C 364.368 281.286,352.287 272.232,350.255 256.543 L 350.015 254.688 353.068 254.688 L 356.122 254.688 356.208 257.066 C 356.532 266.056,361.696 271.366,369.790 271.032 C 381.998 270.528,387.395 255.047,377.702 248.341 C 373.113 245.167,373.089 245.165,339.355 245.431 L 309.766 245.664 309.766 242.754 L 309.766 239.844 315.918 239.789 C 319.302 239.759,327.959 239.621,335.156 239.482 C 360.521 238.994,372.013 239.190,375.579 240.172 M284.051 242.382 L 283.923 245.313 282.489 245.345 C 281.700 245.362,280.615 245.436,280.078 245.508 C 279.541 245.580,275.586 245.743,271.289 245.871 C 251.027 246.473,246.227 248.900,243.815 259.766 C 243.227 262.411,243.173 266.606,243.260 303.027 L 243.356 343.359 241.056 343.359 L 238.757 343.359 238.600 342.009 C 238.101 337.734,238.331 262.090,238.854 258.570 C 240.549 247.159,245.568 242.675,259.180 240.414 C 261.122 240.091,271.878 239.601,278.906 239.516 L 284.180 239.451 284.051 242.382 M34.197 250.959 C 36.828 253.589,33.040 259.163,29.122 258.428 C 25.797 257.804,24.157 254.029,26.325 251.992 C 28.424 250.021,32.699 249.460,34.197 250.959 M106.250 272.266 L 106.250 293.359 167.578 293.359 L 228.906 293.359 228.906 296.908 L 228.906 300.456 170.020 300.326 C 137.632 300.254,108.540 300.142,105.371 300.078 L 99.609 299.960 99.609 275.566 L 99.609 251.172 102.930 251.172 L 106.250 251.172 106.250 272.266 M132.967 251.603 C 144.352 252.666,145.442 254.596,145.931 274.551 L 146.174 284.453 131.388 284.172 C 123.255 284.017,116.525 283.821,116.431 283.735 C 116.338 283.649,116.183 276.280,116.088 267.359 L 115.915 251.139 122.703 251.209 C 126.437 251.247,131.056 251.424,132.967 251.603 M370.007 253.923 C 373.782 254.972,375.096 258.268,372.651 260.552 C 368.887 264.068,363.028 260.569,363.617 255.157 C 363.756 253.877,367.345 253.184,370.007 253.923 M284.153 268.640 C 284.006 276.757,283.805 283.486,283.707 283.594 C 283.609 283.701,276.238 283.851,267.327 283.926 L 251.125 284.063 251.207 277.285 C 251.477 255.025,252.303 254.291,277.464 253.971 L 284.420 253.882 284.153 268.640 M160.179 317.676 C 160.191 322.026,160.264 326.289,160.340 327.148 C 161.499 340.148,160.823 372.561,159.297 377.212 C 155.148 389.849,136.627 392.115,127.419 381.112 C 116.677 368.277,124.587 353.211,143.652 350.194 L 145.313 349.931 145.344 351.821 C 145.362 352.861,145.411 354.186,145.454 354.768 C 145.528 355.772,145.426 355.837,143.372 356.068 C 133.368 357.194,128.906 361.232,128.906 369.161 C 128.906 381.865,144.518 387.610,151.665 377.536 C 154.834 373.068,154.830 373.117,154.583 339.355 L 154.365 309.766 157.261 309.766 L 160.156 309.766 160.179 317.676 M229.038 320.020 C 229.180 325.659,229.296 333.113,229.296 336.585 L 229.297 342.896 216.504 343.063 C 209.468 343.156,196.215 343.263,187.053 343.303 L 170.395 343.374 170.168 337.410 C 170.043 334.129,169.861 326.567,169.765 320.605 L 169.589 309.766 199.185 309.766 L 228.781 309.766 229.038 320.020 M258.032 352.740 C 273.948 356.811,278.726 372.831,267.316 383.872 C 254.633 396.145,235.156 385.932,235.156 367.009 L 235.156 364.844 238.037 364.844 L 240.918 364.844 241.162 366.064 C 241.296 366.736,241.406 367.838,241.406 368.514 C 241.406 370.217,242.792 375.051,243.788 376.826 C 246.978 382.505,253.092 384.812,259.287 382.674 C 268.824 379.381,270.670 363.918,262.037 359.636 C 257.982 357.624,256.726 357.572,203.809 357.183 L 170.313 356.936 170.313 354.445 L 170.313 351.953 212.633 351.953 C 253.784 351.953,255.038 351.975,258.032 352.740 M145.508 364.287 C 146.732 365.212,146.597 369.978,145.291 371.952 C 143.055 375.334,138.872 374.122,138.082 369.862 C 137.378 366.063,142.636 362.116,145.508 364.287 M254.727 365.288 C 258.567 366.575,259.748 370.781,257.033 373.496 C 254.560 375.969,251.506 374.521,250.395 370.348 C 249.308 366.265,251.165 364.096,254.727 365.288 " stroke="none" fill="#c4040c" fill-rule="evenodd"></path>
        <path id="path1" d="M257.129 11.988 C 257.505 12.086,258.120 12.086,258.496 11.988 C 258.872 11.890,258.564 11.809,257.813 11.809 C 257.061 11.809,256.753 11.890,257.129 11.988 M179.590 35.432 C 180.073 35.525,180.864 35.525,181.348 35.432 C 181.831 35.339,181.436 35.263,180.469 35.263 C 179.502 35.263,179.106 35.339,179.590 35.432 M151.660 42.457 C 152.036 42.555,152.651 42.555,153.027 42.457 C 153.403 42.359,153.096 42.278,152.344 42.278 C 151.592 42.278,151.284 42.359,151.660 42.457 M194.043 42.854 C 194.526 42.947,195.317 42.947,195.801 42.854 C 196.284 42.761,195.889 42.685,194.922 42.685 C 193.955 42.685,193.560 42.761,194.043 42.854 M194.043 56.916 C 194.526 57.009,195.317 57.009,195.801 56.916 C 196.284 56.823,195.889 56.747,194.922 56.747 C 193.955 56.747,193.560 56.823,194.043 56.916 M260.840 90.119 C 261.323 90.213,262.114 90.213,262.598 90.119 C 263.081 90.026,262.686 89.950,261.719 89.950 C 260.752 89.950,260.356 90.026,260.840 90.119 M268.280 99.900 C 270.063 99.973,272.875 99.972,274.530 99.899 C 276.185 99.826,274.727 99.767,271.289 99.767 C 267.852 99.768,266.498 99.828,268.280 99.900 M185.059 115.916 C 186.831 115.988,189.731 115.988,191.504 115.916 C 193.276 115.843,191.826 115.784,188.281 115.784 C 184.736 115.784,183.286 115.843,185.059 115.916 M106.356 119.922 C 106.356 120.889,106.433 121.284,106.526 120.801 C 106.619 120.317,106.619 119.526,106.526 119.043 C 106.433 118.560,106.356 118.955,106.356 119.922 M73.145 154.566 C 73.521 154.664,74.136 154.664,74.512 154.566 C 74.888 154.468,74.580 154.388,73.828 154.388 C 73.076 154.388,72.769 154.468,73.145 154.566 M309.082 156.920 C 309.673 157.010,310.640 157.010,311.230 156.920 C 311.821 156.831,311.338 156.758,310.156 156.758 C 308.975 156.758,308.491 156.831,309.082 156.920 M124.121 160.432 C 124.604 160.525,125.396 160.525,125.879 160.432 C 126.362 160.339,125.967 160.263,125.000 160.263 C 124.033 160.263,123.638 160.339,124.121 160.432 M330.762 161.611 C 331.460 161.697,332.603 161.697,333.301 161.611 C 333.999 161.524,333.428 161.453,332.031 161.453 C 330.635 161.453,330.063 161.524,330.762 161.611 M66.699 238.564 C 67.397 238.650,68.540 238.650,69.238 238.564 C 69.937 238.477,69.365 238.406,67.969 238.406 C 66.572 238.406,66.001 238.477,66.699 238.564 M274.121 239.729 C 274.604 239.822,275.396 239.822,275.879 239.729 C 276.362 239.636,275.967 239.560,275.000 239.560 C 274.033 239.560,273.638 239.636,274.121 239.729 M88.770 243.249 C 89.360 243.338,90.327 243.338,90.918 243.249 C 91.509 243.159,91.025 243.086,89.844 243.086 C 88.662 243.086,88.179 243.159,88.770 243.249 M325.488 245.582 C 325.864 245.680,326.479 245.680,326.855 245.582 C 327.231 245.484,326.924 245.403,326.172 245.403 C 325.420 245.403,325.112 245.484,325.488 245.582 M293.466 281.641 C 293.466 282.607,293.542 283.003,293.635 282.520 C 293.728 282.036,293.728 281.245,293.635 280.762 C 293.542 280.278,293.466 280.674,293.466 281.641 M208.496 284.275 C 210.269 284.347,213.169 284.347,214.941 284.275 C 216.714 284.203,215.264 284.143,211.719 284.143 C 208.174 284.143,206.724 284.203,208.496 284.275 M125.702 300.291 C 127.485 300.363,130.297 300.363,131.952 300.290 C 133.607 300.217,132.148 300.158,128.711 300.158 C 125.273 300.159,123.919 300.218,125.702 300.291 M137.402 310.041 C 137.886 310.134,138.677 310.134,139.160 310.041 C 139.644 309.948,139.248 309.872,138.281 309.872 C 137.314 309.872,136.919 309.948,137.402 310.041 M204.199 343.244 C 204.683 343.338,205.474 343.338,205.957 343.244 C 206.440 343.151,206.045 343.075,205.078 343.075 C 204.111 343.075,203.716 343.151,204.199 343.244 M204.199 357.307 C 204.683 357.400,205.474 357.400,205.957 357.307 C 206.440 357.214,206.045 357.138,205.078 357.138 C 204.111 357.138,203.716 357.214,204.199 357.307 M246.973 357.691 C 247.349 357.789,247.964 357.789,248.340 357.691 C 248.716 357.593,248.408 357.513,247.656 357.513 C 246.904 357.513,246.597 357.593,246.973 357.691 M218.652 364.729 C 219.136 364.822,219.927 364.822,220.410 364.729 C 220.894 364.636,220.498 364.560,219.531 364.560 C 218.564 364.560,218.169 364.636,218.652 364.729 M141.504 388.160 C 141.880 388.258,142.495 388.258,142.871 388.160 C 143.247 388.062,142.939 387.981,142.188 387.981 C 141.436 387.981,141.128 388.062,141.504 388.160 " stroke="none" fill="#c8040c" fill-rule="evenodd"></path>
        <path id="path2" d="M257.129 11.988 C 257.505 12.086,258.120 12.086,258.496 11.988 C 258.872 11.890,258.564 11.809,257.813 11.809 C 257.061 11.809,256.753 11.890,257.129 11.988 M179.590 35.432 C 180.073 35.525,180.864 35.525,181.348 35.432 C 181.831 35.339,181.436 35.263,180.469 35.263 C 179.502 35.263,179.106 35.339,179.590 35.432 M151.660 42.457 C 152.036 42.555,152.651 42.555,153.027 42.457 C 153.403 42.359,153.096 42.278,152.344 42.278 C 151.592 42.278,151.284 42.359,151.660 42.457 M194.043 42.854 C 194.526 42.947,195.317 42.947,195.801 42.854 C 196.284 42.761,195.889 42.685,194.922 42.685 C 193.955 42.685,193.560 42.761,194.043 42.854 M194.043 56.916 C 194.526 57.009,195.317 57.009,195.801 56.916 C 196.284 56.823,195.889 56.747,194.922 56.747 C 193.955 56.747,193.560 56.823,194.043 56.916 M260.840 90.119 C 261.323 90.213,262.114 90.213,262.598 90.119 C 263.081 90.026,262.686 89.950,261.719 89.950 C 260.752 89.950,260.356 90.026,260.840 90.119 M268.280 99.900 C 270.063 99.973,272.875 99.972,274.530 99.899 C 276.185 99.826,274.727 99.767,271.289 99.767 C 267.852 99.768,266.498 99.828,268.280 99.900 M185.059 115.916 C 186.831 115.988,189.731 115.988,191.504 115.916 C 193.276 115.843,191.826 115.784,188.281 115.784 C 184.736 115.784,183.286 115.843,185.059 115.916 M106.356 119.922 C 106.356 120.889,106.433 121.284,106.526 120.801 C 106.619 120.317,106.619 119.526,106.526 119.043 C 106.433 118.560,106.356 118.955,106.356 119.922 M73.145 154.566 C 73.521 154.664,74.136 154.664,74.512 154.566 C 74.888 154.468,74.580 154.388,73.828 154.388 C 73.076 154.388,72.769 154.468,73.145 154.566 M309.082 156.920 C 309.673 157.010,310.640 157.010,311.230 156.920 C 311.821 156.831,311.338 156.758,310.156 156.758 C 308.975 156.758,308.491 156.831,309.082 156.920 M124.121 160.432 C 124.604 160.525,125.396 160.525,125.879 160.432 C 126.362 160.339,125.967 160.263,125.000 160.263 C 124.033 160.263,123.638 160.339,124.121 160.432 M330.762 161.611 C 331.460 161.697,332.603 161.697,333.301 161.611 C 333.999 161.524,333.428 161.453,332.031 161.453 C 330.635 161.453,330.063 161.524,330.762 161.611 M66.699 238.564 C 67.397 238.650,68.540 238.650,69.238 238.564 C 69.937 238.477,69.365 238.406,67.969 238.406 C 66.572 238.406,66.001 238.477,66.699 238.564 M274.121 239.729 C 274.604 239.822,275.396 239.822,275.879 239.729 C 276.362 239.636,275.967 239.560,275.000 239.560 C 274.033 239.560,273.638 239.636,274.121 239.729 M88.770 243.249 C 89.360 243.338,90.327 243.338,90.918 243.249 C 91.509 243.159,91.025 243.086,89.844 243.086 C 88.662 243.086,88.179 243.159,88.770 243.249 M325.488 245.582 C 325.864 245.680,326.479 245.680,326.855 245.582 C 327.231 245.484,326.924 245.403,326.172 245.403 C 325.420 245.403,325.112 245.484,325.488 245.582 M293.466 281.641 C 293.466 282.607,293.542 283.003,293.635 282.520 C 293.728 282.036,293.728 281.245,293.635 280.762 C 293.542 280.278,293.466 280.674,293.466 281.641 M208.496 284.275 C 210.269 284.347,213.169 284.347,214.941 284.275 C 216.714 284.203,215.264 284.143,211.719 284.143 C 208.174 284.143,206.724 284.203,208.496 284.275 M125.702 300.291 C 127.485 300.363,130.297 300.363,131.952 300.290 C 133.607 300.217,132.148 300.158,128.711 300.158 C 125.273 300.159,123.919 300.218,125.702 300.291 M137.402 310.041 C 137.886 310.134,138.677 310.134,139.160 310.041 C 139.644 309.948,139.248 309.872,138.281 309.872 C 137.314 309.872,136.919 309.948,137.402 310.041 M204.199 343.244 C 204.683 343.338,205.474 343.338,205.957 343.244 C 206.440 343.151,206.045 343.075,205.078 343.075 C 204.111 343.075,203.716 343.151,204.199 343.244 M204.199 357.307 C 204.683 357.400,205.474 357.400,205.957 357.307 C 206.440 357.214,206.045 357.138,205.078 357.138 C 204.111 357.138,203.716 357.214,204.199 357.307 M246.973 357.691 C 247.349 357.789,247.964 357.789,248.340 357.691 C 248.716 357.593,248.408 357.513,247.656 357.513 C 246.904 357.513,246.597 357.593,246.973 357.691 M218.652 364.729 C 219.136 364.822,219.927 364.822,220.410 364.729 C 220.894 364.636,220.498 364.560,219.531 364.560 C 218.564 364.560,218.169 364.636,218.652 364.729 M141.504 388.160 C 141.880 388.258,142.495 388.258,142.871 388.160 C 143.247 388.062,142.939 387.981,142.188 387.981 C 141.436 387.981,141.128 388.062,141.504 388.160 " stroke="none" fill="#c8040c" fill-rule="evenodd"></path>
        <path id="path3" d="M257.129 11.988 C 257.505 12.086,258.120 12.086,258.496 11.988 C 258.872 11.890,258.564 11.809,257.813 11.809 C 257.061 11.809,256.753 11.890,257.129 11.988 M179.590 35.432 C 180.073 35.525,180.864 35.525,181.348 35.432 C 181.831 35.339,181.436 35.263,180.469 35.263 C 179.502 35.263,179.106 35.339,179.590 35.432 M151.660 42.457 C 152.036 42.555,152.651 42.555,153.027 42.457 C 153.403 42.359,153.096 42.278,152.344 42.278 C 151.592 42.278,151.284 42.359,151.660 42.457 M194.043 42.854 C 194.526 42.947,195.317 42.947,195.801 42.854 C 196.284 42.761,195.889 42.685,194.922 42.685 C 193.955 42.685,193.560 42.761,194.043 42.854 M194.043 56.916 C 194.526 57.009,195.317 57.009,195.801 56.916 C 196.284 56.823,195.889 56.747,194.922 56.747 C 193.955 56.747,193.560 56.823,194.043 56.916 M260.840 90.119 C 261.323 90.213,262.114 90.213,262.598 90.119 C 263.081 90.026,262.686 89.950,261.719 89.950 C 260.752 89.950,260.356 90.026,260.840 90.119 M268.280 99.900 C 270.063 99.973,272.875 99.972,274.530 99.899 C 276.185 99.826,274.727 99.767,271.289 99.767 C 267.852 99.768,266.498 99.828,268.280 99.900 M185.059 115.916 C 186.831 115.988,189.731 115.988,191.504 115.916 C 193.276 115.843,191.826 115.784,188.281 115.784 C 184.736 115.784,183.286 115.843,185.059 115.916 M106.356 119.922 C 106.356 120.889,106.433 121.284,106.526 120.801 C 106.619 120.317,106.619 119.526,106.526 119.043 C 106.433 118.560,106.356 118.955,106.356 119.922 M73.145 154.566 C 73.521 154.664,74.136 154.664,74.512 154.566 C 74.888 154.468,74.580 154.388,73.828 154.388 C 73.076 154.388,72.769 154.468,73.145 154.566 M309.082 156.920 C 309.673 157.010,310.640 157.010,311.230 156.920 C 311.821 156.831,311.338 156.758,310.156 156.758 C 308.975 156.758,308.491 156.831,309.082 156.920 M124.121 160.432 C 124.604 160.525,125.396 160.525,125.879 160.432 C 126.362 160.339,125.967 160.263,125.000 160.263 C 124.033 160.263,123.638 160.339,124.121 160.432 M330.762 161.611 C 331.460 161.697,332.603 161.697,333.301 161.611 C 333.999 161.524,333.428 161.453,332.031 161.453 C 330.635 161.453,330.063 161.524,330.762 161.611 M66.699 238.564 C 67.397 238.650,68.540 238.650,69.238 238.564 C 69.937 238.477,69.365 238.406,67.969 238.406 C 66.572 238.406,66.001 238.477,66.699 238.564 M274.121 239.729 C 274.604 239.822,275.396 239.822,275.879 239.729 C 276.362 239.636,275.967 239.560,275.000 239.560 C 274.033 239.560,273.638 239.636,274.121 239.729 M88.770 243.249 C 89.360 243.338,90.327 243.338,90.918 243.249 C 91.509 243.159,91.025 243.086,89.844 243.086 C 88.662 243.086,88.179 243.159,88.770 243.249 M325.488 245.582 C 325.864 245.680,326.479 245.680,326.855 245.582 C 327.231 245.484,326.924 245.403,326.172 245.403 C 325.420 245.403,325.112 245.484,325.488 245.582 M293.466 281.641 C 293.466 282.607,293.542 283.003,293.635 282.520 C 293.728 282.036,293.728 281.245,293.635 280.762 C 293.542 280.278,293.466 280.674,293.466 281.641 M208.496 284.275 C 210.269 284.347,213.169 284.347,214.941 284.275 C 216.714 284.203,215.264 284.143,211.719 284.143 C 208.174 284.143,206.724 284.203,208.496 284.275 M125.702 300.291 C 127.485 300.363,130.297 300.363,131.952 300.290 C 133.607 300.217,132.148 300.158,128.711 300.158 C 125.273 300.159,123.919 300.218,125.702 300.291 M137.402 310.041 C 137.886 310.134,138.677 310.134,139.160 310.041 C 139.644 309.948,139.248 309.872,138.281 309.872 C 137.314 309.872,136.919 309.948,137.402 310.041 M204.199 343.244 C 204.683 343.338,205.474 343.338,205.957 343.244 C 206.440 343.151,206.045 343.075,205.078 343.075 C 204.111 343.075,203.716 343.151,204.199 343.244 M204.199 357.307 C 204.683 357.400,205.474 357.400,205.957 357.307 C 206.440 357.214,206.045 357.138,205.078 357.138 C 204.111 357.138,203.716 357.214,204.199 357.307 M246.973 357.691 C 247.349 357.789,247.964 357.789,248.340 357.691 C 248.716 357.593,248.408 357.513,247.656 357.513 C 246.904 357.513,246.597 357.593,246.973 357.691 M218.652 364.729 C 219.136 364.822,219.927 364.822,220.410 364.729 C 220.894 364.636,220.498 364.560,219.531 364.560 C 218.564 364.560,218.169 364.636,218.652 364.729 M141.504 388.160 C 141.880 388.258,142.495 388.258,142.871 388.160 C 143.247 388.062,142.939 387.981,142.188 387.981 C 141.436 387.981,141.128 388.062,141.504 388.160 " stroke="none" fill="#c8040c" fill-rule="evenodd"></path>
        <path id="path4" d="M257.129 11.988 C 257.505 12.086,258.120 12.086,258.496 11.988 C 258.872 11.890,258.564 11.809,257.813 11.809 C 257.061 11.809,256.753 11.890,257.129 11.988 M179.590 35.432 C 180.073 35.525,180.864 35.525,181.348 35.432 C 181.831 35.339,181.436 35.263,180.469 35.263 C 179.502 35.263,179.106 35.339,179.590 35.432 M151.660 42.457 C 152.036 42.555,152.651 42.555,153.027 42.457 C 153.403 42.359,153.096 42.278,152.344 42.278 C 151.592 42.278,151.284 42.359,151.660 42.457 M194.043 42.854 C 194.526 42.947,195.317 42.947,195.801 42.854 C 196.284 42.761,195.889 42.685,194.922 42.685 C 193.955 42.685,193.560 42.761,194.043 42.854 M194.043 56.916 C 194.526 57.009,195.317 57.009,195.801 56.916 C 196.284 56.823,195.889 56.747,194.922 56.747 C 193.955 56.747,193.560 56.823,194.043 56.916 M260.840 90.119 C 261.323 90.213,262.114 90.213,262.598 90.119 C 263.081 90.026,262.686 89.950,261.719 89.950 C 260.752 89.950,260.356 90.026,260.840 90.119 M268.280 99.900 C 270.063 99.973,272.875 99.972,274.530 99.899 C 276.185 99.826,274.727 99.767,271.289 99.767 C 267.852 99.768,266.498 99.828,268.280 99.900 M185.059 115.916 C 186.831 115.988,189.731 115.988,191.504 115.916 C 193.276 115.843,191.826 115.784,188.281 115.784 C 184.736 115.784,183.286 115.843,185.059 115.916 M106.356 119.922 C 106.356 120.889,106.433 121.284,106.526 120.801 C 106.619 120.317,106.619 119.526,106.526 119.043 C 106.433 118.560,106.356 118.955,106.356 119.922 M73.145 154.566 C 73.521 154.664,74.136 154.664,74.512 154.566 C 74.888 154.468,74.580 154.388,73.828 154.388 C 73.076 154.388,72.769 154.468,73.145 154.566 M309.082 156.920 C 309.673 157.010,310.640 157.010,311.230 156.920 C 311.821 156.831,311.338 156.758,310.156 156.758 C 308.975 156.758,308.491 156.831,309.082 156.920 M124.121 160.432 C 124.604 160.525,125.396 160.525,125.879 160.432 C 126.362 160.339,125.967 160.263,125.000 160.263 C 124.033 160.263,123.638 160.339,124.121 160.432 M330.762 161.611 C 331.460 161.697,332.603 161.697,333.301 161.611 C 333.999 161.524,333.428 161.453,332.031 161.453 C 330.635 161.453,330.063 161.524,330.762 161.611 M66.699 238.564 C 67.397 238.650,68.540 238.650,69.238 238.564 C 69.937 238.477,69.365 238.406,67.969 238.406 C 66.572 238.406,66.001 238.477,66.699 238.564 M274.121 239.729 C 274.604 239.822,275.396 239.822,275.879 239.729 C 276.362 239.636,275.967 239.560,275.000 239.560 C 274.033 239.560,273.638 239.636,274.121 239.729 M88.770 243.249 C 89.360 243.338,90.327 243.338,90.918 243.249 C 91.509 243.159,91.025 243.086,89.844 243.086 C 88.662 243.086,88.179 243.159,88.770 243.249 M325.488 245.582 C 325.864 245.680,326.479 245.680,326.855 245.582 C 327.231 245.484,326.924 245.403,326.172 245.403 C 325.420 245.403,325.112 245.484,325.488 245.582 M293.466 281.641 C 293.466 282.607,293.542 283.003,293.635 282.520 C 293.728 282.036,293.728 281.245,293.635 280.762 C 293.542 280.278,293.466 280.674,293.466 281.641 M208.496 284.275 C 210.269 284.347,213.169 284.347,214.941 284.275 C 216.714 284.203,215.264 284.143,211.719 284.143 C 208.174 284.143,206.724 284.203,208.496 284.275 M125.702 300.291 C 127.485 300.363,130.297 300.363,131.952 300.290 C 133.607 300.217,132.148 300.158,128.711 300.158 C 125.273 300.159,123.919 300.218,125.702 300.291 M137.402 310.041 C 137.886 310.134,138.677 310.134,139.160 310.041 C 139.644 309.948,139.248 309.872,138.281 309.872 C 137.314 309.872,136.919 309.948,137.402 310.041 M204.199 343.244 C 204.683 343.338,205.474 343.338,205.957 343.244 C 206.440 343.151,206.045 343.075,205.078 343.075 C 204.111 343.075,203.716 343.151,204.199 343.244 M204.199 357.307 C 204.683 357.400,205.474 357.400,205.957 357.307 C 206.440 357.214,206.045 357.138,205.078 357.138 C 204.111 357.138,203.716 357.214,204.199 357.307 M246.973 357.691 C 247.349 357.789,247.964 357.789,248.340 357.691 C 248.716 357.593,248.408 357.513,247.656 357.513 C 246.904 357.513,246.597 357.593,246.973 357.691 M218.652 364.729 C 219.136 364.822,219.927 364.822,220.410 364.729 C 220.894 364.636,220.498 364.560,219.531 364.560 C 218.564 364.560,218.169 364.636,218.652 364.729 M141.504 388.160 C 141.880 388.258,142.495 388.258,142.871 388.160 C 143.247 388.062,142.939 387.981,142.188 387.981 C 141.436 387.981,141.128 388.062,141.504 388.160 " stroke="none" fill="#c8040c" fill-rule="evenodd"></path>
    </g>
</svg>