<?xml version="1.0" encoding="utf-8"?>
<!-- Generator: Adobe Illustrator 16.0.0, SVG Export Plug-In . SVG Version: 6.00 Build 0)  -->
<!DOCTYPE svg PUBLIC "-//W3C//DTD SVG 1.0//EN" "http://www.w3.org/TR/2001/REC-SVG-20010904/DTD/svg10.dtd">
<svg version="1.0" id="Layer_1" xmlns="http://www.w3.org/2000/svg" xmlns:xlink="http://www.w3.org/1999/xlink" x="0px" y="0px"
	 width="360px" height="360px" viewBox="0 0 360 360" enable-background="new 0 0 360 360" xml:space="preserve">
<g>
	<g>
		<path fill="#ED1C24" d="M187.746,93.653l-0.07,43.878h-14.164V93.58l-37.545-0.07c-6.054-0.141-10.21,6.126-10.21,12.115v31.84
			h-13.171v-31.84c0-14.79,10.562-25.494,25.42-25.494l83.059-0.075c17.543,0,27.396,10.357,27.396,25.711v31.764h-13.236v-31.764
			c0-5.917-3.523-11.976-9.934-12.114H187.746z"/>
		<path d="M223.033,175.339h-32.312l-30.002,36.781l11.229-36.781h-33.929c-14.094,0-25.433-11.414-25.433-25.433v-9.224
			l13.171-0.009v9.233c0,6.766,5.496,12.259,12.262,12.259h85.015c6.761,0,12.257-5.494,12.257-12.259l0.049-9.301l13.122,0.002
			v9.299c0,6.766-2.675,13.177-7.464,17.971C236.208,172.662,229.794,175.339,223.033,175.339z"/>
	</g>
	<g>
		<path fill="#ED1C24" d="M72.545,224.347l-41.147,0.032c-7.5,0-12.829,5.406-12.829,12.877v25.099h6.647v-25.099
			c0-3.024,2.091-6.184,5.153-6.113l18.522,0.037v31.21h7.157l0.035-31.184h18.601c3.229,0.079,5.009,3.138,5.009,6.12v25.063h6.682
			v-25.063C86.375,229.574,81.402,224.347,72.545,224.347z M142.605,229.045c0,3.407-2.781,6.182-6.194,6.182h-32.994
			c-3.414,0-6.195-2.774-6.195-6.182v-4.522l-6.643-0.144v4.666c0,7.075,5.729,12.84,12.837,12.84h13.575v20.505h6.66v-20.505
			h12.758c3.414,0,6.651-1.358,9.076-3.776c2.412-2.421,3.765-5.656,3.765-9.063v-4.698l-6.647,0.138V229.045z M208.249,252.438
			c0,3.014-1.858,4.111-3.738,4.111c-2.025,0-3.08-0.039-6.331-3.299l-21.619-23.891c-5.364-5.357-8.145-5.477-12.306-5.477
			c-6.335,0-9.99,5.085-9.99,9.25v29.325h6.651l0.066-27.906c0-2.982,1.85-4.083,3.73-4.083c2.034,0,3.629,0.608,6.34,3.297
			l21.584,23.897c5.584,5.575,8.172,5.474,12.341,5.474c6.331,0,9.959-5.085,9.959-9.25v-29.325h-6.651L208.249,252.438z
			 M233.379,224.379c-7.147,0-12.978,5.835-12.978,12.982v12.044c0,7.182,5.83,12.984,12.978,12.984h46.477v-6.684h-46.477
			c-2.877,0-6.085-1.839-6.085-9.288h52.562v-6.706h-52.381c0-6.902,3.272-8.64,5.904-8.64l76.421,0.005v31.312h6.656v-31.363
			h26.021v-6.639L233.379,224.379z"/>
		<g>
			<path d="M20.212,274.384v5.957h-1.643v-9.957l4.969,4.978l4.986-4.978v9.957h-1.687v-5.957l-3.304,3.328L20.212,274.384z"/>
			<path d="M40.549,278.672h-4.578l-0.844,1.669h-1.85l4.978-9.957l4.978,9.957h-1.85L40.549,278.672z M36.788,277.03h2.931
				l-1.463-2.933L36.788,277.03z"/>
			<path d="M51.053,270.384c0.69,0,1.331,0.132,1.933,0.391c0.598,0.257,1.125,0.611,1.586,1.074l-1.182,1.176
				c-0.646-0.653-1.428-0.976-2.337-0.976c-0.457,0-0.887,0.088-1.287,0.259c-0.404,0.169-0.756,0.409-1.059,0.708
				c-0.303,0.301-0.54,0.652-0.72,1.052c-0.176,0.404-0.259,0.833-0.259,1.294c0,0.459,0.083,0.888,0.259,1.291
				c0.18,0.402,0.417,0.752,0.716,1.053c0.294,0.297,0.646,0.538,1.05,0.709c0.409,0.17,0.843,0.258,1.3,0.258
				c0.901,0,1.678-0.318,2.337-0.96l1.182,1.164c-0.461,0.459-0.988,0.817-1.586,1.076c-0.602,0.257-1.243,0.389-1.933,0.389
				c-0.689,0-1.331-0.132-1.933-0.393c-0.606-0.264-1.133-0.622-1.59-1.072c-0.453-0.45-0.812-0.978-1.076-1.579
				c-0.264-0.603-0.396-1.246-0.396-1.936c0-0.67,0.132-1.305,0.396-1.918c0.264-0.604,0.624-1.136,1.076-1.59
				c0.457-0.455,0.984-0.815,1.59-1.077C49.722,270.516,50.364,270.384,51.053,270.384z"/>
			<path d="M65.934,270.384v1.665h-4.982v2.5h4.982v1.645h-4.982v2.479h4.982v1.669h-6.625v-9.957H65.934z"/>
			<path d="M70.678,270.384h3.312c0.676,0,1.318,0.132,1.924,0.393c0.602,0.262,1.125,0.622,1.582,1.077
				c0.457,0.454,0.812,0.981,1.081,1.583c0.259,0.604,0.391,1.244,0.391,1.925c0,0.679-0.132,1.317-0.391,1.924
				c-0.268,0.598-0.624,1.129-1.072,1.584c-0.453,0.457-0.98,0.815-1.582,1.079c-0.615,0.261-1.257,0.393-1.933,0.393h-3.312
				V270.384z M73.986,278.672c0.457,0,0.892-0.088,1.292-0.258c0.4-0.171,0.751-0.412,1.054-0.718
				c0.303-0.303,0.536-0.657,0.708-1.059c0.176-0.4,0.264-0.828,0.264-1.276c0-0.45-0.088-0.877-0.264-1.278
				c-0.171-0.4-0.409-0.756-0.716-1.059c-0.307-0.306-0.659-0.548-1.059-0.717c-0.404-0.171-0.826-0.259-1.278-0.259h-1.665v6.623
				H73.986z"/>
			<path d="M88.682,270.384c1.375,0,2.548,0.483,3.51,1.465c0.984,0.971,1.476,2.142,1.476,3.513c0,1.384-0.492,2.555-1.476,3.515
				c-0.962,0.979-2.135,1.465-3.51,1.465s-2.543-0.485-3.51-1.465c-0.975-0.967-1.458-2.138-1.458-3.515
				c0-1.371,0.483-2.542,1.458-3.513C86.129,270.867,87.298,270.384,88.682,270.384z M88.677,272.049
				c-0.905,0-1.687,0.322-2.341,0.976c-0.637,0.646-0.958,1.432-0.958,2.337c0,0.907,0.321,1.693,0.958,2.351
				c0.654,0.642,1.437,0.96,2.341,0.96c0.905,0,1.683-0.318,2.333-0.96c0.646-0.657,0.966-1.443,0.966-2.351
				c0-0.905-0.32-1.691-0.966-2.337C90.36,272.371,89.583,272.049,88.677,272.049z"/>
			<path d="M98.422,270.361l6.625,5.973v-5.973h1.669v9.955v-0.011v0.035l-6.647-5.973v5.948h-1.647V270.361z"/>
			<path d="M111.457,270.384h1.647v9.957h-1.647V270.384z"/>
			<path d="M125.115,278.672h-4.578l-0.844,1.669h-1.854l4.978-9.957l4.982,9.957h-1.85L125.115,278.672z M121.359,277.03h2.926
				l-1.468-2.933L121.359,277.03z"/>
			<path d="M132.544,270.361l6.625,5.973v-5.973h1.669v9.955v-0.011v0.035l-6.647-5.973v5.948h-1.647V270.361z"/>
			<path d="M159.603,270.384h2.113l-4.095,5.222v4.735h-1.643v-4.65l-4.165-5.307h2.126l2.825,3.631L159.603,270.384z"/>
			<path d="M168.982,270.384c1.375,0,2.548,0.483,3.515,1.465c0.984,0.971,1.476,2.142,1.476,3.513c0,1.384-0.492,2.555-1.476,3.515
				c-0.967,0.979-2.14,1.465-3.515,1.465s-2.544-0.485-3.506-1.465c-0.98-0.967-1.463-2.138-1.463-3.515
				c0-1.371,0.483-2.542,1.463-3.513C166.43,270.867,167.599,270.384,168.982,270.384z M168.982,272.049
				c-0.905,0-1.687,0.322-2.346,0.976c-0.637,0.646-0.958,1.432-0.958,2.337c0,0.907,0.32,1.693,0.958,2.351
				c0.659,0.642,1.441,0.96,2.346,0.96c0.905,0,1.678-0.318,2.324-0.96c0.65-0.657,0.976-1.443,0.976-2.351
				c0-0.905-0.325-1.691-0.976-2.337C170.661,272.371,169.887,272.049,168.982,272.049z"/>
			<path d="M187.017,276.193c0,1.145-0.408,2.129-1.222,2.941c-0.816,0.805-1.801,1.206-2.938,1.206
				c-1.129,0-2.104-0.401-2.922-1.206c-0.808-0.826-1.208-1.803-1.208-2.941v-5.81h1.647v5.808c0,0.689,0.233,1.27,0.716,1.753
				c0.488,0.481,1.072,0.728,1.767,0.728c0.686,0,1.265-0.246,1.744-0.728c0.501-0.489,0.751-1.076,0.751-1.753v-5.808h1.665
				V276.193z"/>
			<path d="M191.744,270.384h8.308v1.665h-3.312v8.292h-1.665v-8.292h-3.33V270.384z"/>
			<path d="M204.81,270.384h1.643v4.147h4.982v-4.147h1.665v9.957h-1.665v-4.147h-4.982v4.147h-1.643V270.384z"/>
			<path d="M224.074,270.361l6.625,5.973v-5.973h1.665v9.955v-0.011v0.035l-6.647-5.973v5.948h-1.643V270.361z"/>
			<path d="M243.734,270.384v1.665h-4.982v2.5h4.982v1.645h-4.982v2.479h4.982v1.669h-6.63v-9.957H243.734z"/>
			<path d="M248.461,270.384h8.308v1.665h-3.312v8.292h-1.669v-8.292h-3.326V270.384z"/>
			<path d="M263.367,270.384l3.142,6.238l3.115-6.238l3.132,6.238l3.128-6.238h1.85l-4.978,9.957l-3.132-6.247l-3.115,6.247
				l-4.995-9.957H263.367z"/>
			<path d="M285.589,270.384c1.375,0,2.544,0.483,3.51,1.465c0.984,0.971,1.477,2.142,1.477,3.513c0,1.384-0.492,2.555-1.477,3.515
				c-0.966,0.979-2.135,1.465-3.51,1.465s-2.548-0.485-3.51-1.465c-0.976-0.967-1.459-2.138-1.459-3.515
				c0-1.371,0.483-2.542,1.459-3.513C283.032,270.867,284.205,270.384,285.589,270.384z M285.584,272.049
				c-0.904,0-1.682,0.322-2.346,0.976c-0.637,0.646-0.953,1.432-0.953,2.337c0,0.907,0.316,1.693,0.953,2.351
				c0.664,0.642,1.441,0.96,2.346,0.96c0.905,0,1.684-0.318,2.329-0.96c0.65-0.657,0.971-1.443,0.971-2.351
				c0-0.905-0.32-1.691-0.971-2.337C287.268,272.371,286.489,272.049,285.584,272.049z"/>
			<path d="M301.712,280.341l-1.924-3.311h-2.812v3.311h-1.647v-9.957h4.981c0.905,0,1.688,0.325,2.333,0.976
				c0.654,0.647,0.976,1.43,0.976,2.335c0,0.689-0.193,1.317-0.585,1.885c-0.386,0.553-0.869,0.951-1.467,1.186l2.052,3.576H301.712
				z M300.302,272.049h-3.325v3.299l3.325,0.014c0.453,0,0.839-0.165,1.169-0.488c0.32-0.324,0.483-0.714,0.483-1.175
				c0-0.45-0.163-0.837-0.483-1.164C301.141,272.211,300.755,272.049,300.302,272.049z"/>
			<path d="M311.672,275.361l4.981,4.979h-2.341l-4.302-4.276v4.276h-1.647v-9.957h1.647v4.29l4.302-4.29h2.341L311.672,275.361z"/>
		</g>
	</g>
</g>
</svg>
